<svg viewBox="0 0 1440 500" class="w-full h-full" preserveAspectRatio="none" xmlns="http://www.w3.org/2000/svg"><rect width="100%" height="100%" fill="#ffffff"/><path d="M 0 500 L 0 212.65542394830317 L 14.4 220.0338749007676 L 28.8 229.5366557305423 L 43.2 240.82712568918978 L 57.6 253.50531424964515 L 72 267.122090261538 L 86.4 281.1950726461017 L 100.8 295.2257189863826 L 115.2 308.71698664090206 L 129.6 321.1909407270248 L 144 332.205685202453 L 158.4 341.3710172528259 L 172.8 348.36225042094884 L 187.20000000000002 352.93171678641414 L 201.6 354.9175407251516 L 216 354.2493734341132 L 230.4 350.95088507269406 L 244.8 345.13892623553403 L 259.2 337.0193884619496 L 273.6 326.87991042550516 L 288 315.0796881906038 L 302.40000000000003 302.0367505128296 L 316.8 288.21314996188005 L 331.2 274.0985944789255 L 345.6 260.19309922865625 L 360 246.98927331279708 L 374.40000000000003 234.9548688470863 L 388.8 224.5162106093845 L 403.2 216.04309327187988 L 417.6 209.83568124046286 L 432 206.1138751810056 L 446.40000000000003 205.0095219286439 L 460.8 206.56174374790947 L 475.2 210.71555240700653 L 489.6 217.32379716333523 L 504 226.15237765191122 L 518.4 236.8885370075039 L 532.8000000000001 249.1519414325068 L 547.2 262.50815371133507 L 561.6 276.4840233653713 L 576 290.58444824455233 L 590.4 304.3099137678716 L 604.8000000000001 317.1741884764368 L 619.2 328.7215490253059 L 633.6 338.54292441018475 L 648 346.2903875116903 L 662.4 351.6894805870101 L 676.8000000000001 354.5489380722735 L 691.2 354.7674622605035 L 705.6 352.3373118233885 L 720 347.344576051697 L 734.4 339.96612509923193 L 748.8000000000001 330.46334426945793 L 763.2 319.17287431081047 L 777.6 306.4946857503541 L 792 292.8779097384623 L 806.4 278.80492735389856 L 820.8000000000001 264.7742810136166 L 835.2 251.2830133590982 L 849.6 238.8090592729755 L 864 227.79431479754643 L 878.4 218.6289827471743 L 892.8000000000001 211.6377495790513 L 907.2 207.0682832135857 L 921.6 205.08245927484842 L 936 205.7506265658868 L 950.4 209.0491149273062 L 964.8000000000001 214.86107376446583 L 979.2 222.98061153805025 L 993.6 233.1200895744946 L 1008 244.92031180939688 L 1022.4 257.9632494871701 L 1036.8 271.78685003812075 L 1051.2 285.9014055210753 L 1065.6000000000001 299.80690077134346 L 1080 313.01072668720263 L 1094.4 325.04513115291434 L 1108.8 335.4837893906153 L 1123.2 343.95690672812 L 1137.6000000000001 350.1643187595374 L 1152 353.88612481899435 L 1166.4 354.9904780713561 L 1180.8 353.4382562520906 L 1195.2 349.2844475929936 L 1209.6000000000001 342.6762028366649 L 1224 333.847622348089 L 1238.4 323.11146299249634 L 1252.8 310.84805856749347 L 1267.2 297.4918462886652 L 1281.6000000000001 283.51597663462906 L 1296 269.41555175544795 L 1310.4 255.69008623212767 L 1324.8 242.82581152356346 L 1339.2 231.27845097469356 L 1353.6000000000001 221.45707558981545 L 1368 213.7096124883098 L 1382.4 208.31051941299 L 1396.8 205.45106192772653 L 1411.2 205.23253773949642 L 1425.6000000000001 207.66268817661137 L 1440 212.65542394830288 L 1440 500 Z" fill="#3b82f6" fill-opacity="1"/><path d="M 0 500 L 0 305.8265009599563 C 144 305.8265009599563 144 342.99567625270356 288 342.99567625270356 C 432 342.99567625270356 432 342.11921953447927 576 342.11921953447927 C 720 342.11921953447927 720 343.420708560443 864 343.420708560443 C 1008 343.420708560443 1008 323.91313255582645 1152 323.91313255582645 C 1296 323.91313255582645 1296 302.86457268386584 1440 302.86457268386584 L 1440 500 Z" fill="#60a5fa" fill-opacity="0.5"/></svg>